PathFileType	3	(X/Y/Z)	D:\Jess\Healthy\Labelled\HA07\20250404\SRRun01.trc
DataRate	CameraRate	NumFrames	NumMarkers	Units	OrigDataRate	OrigDataStartFrame	OrigNumFrames
250.0	250.0	6	33	mm	250.0	35625	2501
Frame#	Time	C7			T10			CLAV			LSHO			RSHO			LASIS			RASIS			LPSIS			RPSIS			LILCR			RILCR			LGTR			LTHI			LLTHI			LLEP			LPSH			LLSH			LDSH			LLMAL			LTOE			L5TH			LHEE			RGTR			RTHI			RLTHI			RLEP			RPSH			RLSH			RDSH			RLMAL			RTOE			R5TH			RHEE			
		X1	Y1	Z1	X2	Y2	Z2	X3	Y3	Z3	X4	Y4	Z4	X5	Y5	Z5	X6	Y6	Z6	X7	Y7	Z7	X8	Y8	Z8	X9	Y9	Z9	X10	Y10	Z10	X11	Y11	Z11	X12	Y12	Z12	X13	Y13	Z13	X14	Y14	Z14	X15	Y15	Z15	X16	Y16	Z16	X17	Y17	Z17	X18	Y18	Z18	X19	Y19	Z19	X20	Y20	Z20	X21	Y21	Z21	X22	Y22	Z22	X23	Y23	Z23	X24	Y24	Z24	X25	Y25	Z25	X26	Y26	Z26	X27	Y27	Z27	X28	Y28	Z28	X29	Y29	Z29	X30	Y30	Z30	X31	Y31	Z31	X32	Y32	Z32	X33	Y33	Z33	

626	142.496	1091.220575731527	1394.772242600326	-271.8942740954336	1038.247665747628	1187.666433592426	-253.3810643201681	1221.188846978751	1320.260642797966	-301.602720540647	1103.379586482433	1384.02221339787	-426.0859209948395	1177.927898875108	1380.93422809206	-140.0925563238546	1189.569814138626	966.2053719206327	-397.6959098274881	1210.745884105462	952.2879222231052	-175.7099777179825	1031.954619136233	1006.7875726398	-286.9249236517396	1039.193287203064	1006.216510748923	-246.0714068669207	1127.995030315256	997.9304887036795	-440.6282936416222	1156.021699460302	989.1535422402807	-136.3317115257515	1125.228040249295	891.6126855210319	-463.2860547830943	1282.98186486268	804.9006962522353	-389.0310991873911	1235.464303580779	676.5541235201114	-440.7036154223014	1292.417401508209	525.890360293271	-414.7846309414904	1346.051417763727	444.6400614729338	-370.1360270299081	1251.730492336988	341.7953691731199	-426.3683884466714	1307.966431134023	236.5881760329742	-363.0355837686309	1258.370528360779	137.1831871755139	-392.5463032078835	1379.164710083868	93.97901680212729	-384.6965758218319	1340.285970026583	70.75270329834537	-419.4945169751742	1180.498457678212	116.9724972519776	-345.3701754738358	1141.839230820133	881.0081402285255	-117.4579572226895	1189.185547064997	720.5780884776409	-208.3106093217611	1072.840492353846	649.7225353607246	-152.7043126554998	996.0322185006927	496.9830085550233	-188.3192090810129	995.4865245345279	408.4636482229327	-249.9290405860548	878.9489459090233	362.544735693506	-183.9334563237277	867.968908354118	242.5890990821343	-255.3604589066838	777.8207290521013	184.1062058326783	-226.5441763466927	830.2478627415935	68.86545505470073	-250.3283889612414	786.4098318288322	71.25622414380578	-210.4956992633571	706.8009113390049	222.4237164194371	-270.9143672466098	
627	142.5	1091.143570299424	1396.365785572088	-271.9001983662885	1039.03645020239	1188.957431874258	-252.6402933946755	1221.043695088496	1322.394734152467	-302.1821937229917	1102.605907861659	1385.664558892958	-425.727036393595	1178.618847185404	1382.814607012196	-140.5736839729995	1190.056377667613	967.8937918292195	-397.4283342927331	1212.146824629877	953.5122649557726	-176.2563886366875	1032.985377335998	1008.906099189175	-286.343691427323	1040.403867701797	1008.312437340056	-245.5023044073879	1128.665066711221	1000.084776380313	-440.227502149625	1158.118138915387	990.8250357490505	-136.5626226579233	1125.638733854727	893.8101076119207	-463.2577886260116	1283.255959472947	804.8650371500765	-389.3127203649574	1233.850830152167	677.0364435266021	-440.6742383129637	1290.320062578514	525.3290524489341	-414.5829377669921	1346.032010498576	445.5263894259944	-369.6083436115558	1256.050926812476	339.3661727350609	-426.045936852726	1316.229017491955	236.4960826814269	-362.3747736492592	1270.972561918053	134.9715442147221	-391.6969497751408	1393.464060171272	96.95317250560394	-383.0339327889346	1355.832896025239	71.91732595477855	-417.9051246897898	1193.800473763773	111.6395024228433	-344.8742363275834	1143.416979248153	882.6144573776429	-117.3018499496025	1188.913893087489	721.4686019014558	-208.5300146319397	1071.937224162522	651.8409298152861	-152.5532124778084	993.3400704185689	500.0370202680678	-188.0794935214573	992.3103225964136	411.1922594780896	-249.4422409938768	875.1980999729101	366.4576878640572	-183.6135857327316	864.2305429122016	245.7245589424387	-254.2628534658265	773.6623946009684	187.6542272548068	-225.6578103449412	822.2330547079612	70.14095468637805	-249.8912921166902	778.0924065814465	73.95613503914925	-210.4657271061697	704.4555187043704	228.5534892848548	-270.224036657793	
628	142.504	1091.076222022899	1397.792581125367	-271.9239736243146	1039.797494961951	1190.081707409743	-251.9806302345755	1220.911997680337	1324.352707198468	-302.7409651813277	1101.908383783772	1387.138112849651	-425.4065558107818	1179.254490965622	1384.520495760387	-141.0365641161359	1190.523955630126	969.3374618570164	-397.174053727706	1213.470346909406	954.6024754708512	-176.7833226386879	1033.956537128861	1010.868856264143	-285.8144308069283	1041.536726983553	1010.256543747003	-244.9811710552778	1129.334636310564	1001.9897242092	-439.8573585228382	1160.101910546463	992.3529849258803	-136.7990236540803	1126.036882614705	895.7287779973157	-463.2202296204569	1283.379488297213	804.3782137254208	-389.49724156478	1232.201449989599	677.2315360552915	-440.7923730541476	1288.205341136237	524.590495677389	-414.4202604852378	1345.863841043978	446.2946984163219	-369.0747757401131	1260.109542409862	337.1570899840671	-425.672069664347	1324.043289373673	236.6493736544142	-361.7091366859917	1283.054962801136	133.1909176399606	-390.8161701949098	1407.028715271275	100.2400968671937	-381.3196224694753	1370.681359824999	73.45223414168238	-416.2327497189279	1206.644597085744	106.8713718252332	-344.3436835449677	1144.940491963407	884.1025384631554	-117.1646759072984	1188.780555992133	722.2865352231366	-208.7582755745478	1071.312633285757	653.7294636531964	-152.4135733512757	991.1376995840674	502.770148118933	-187.8430921426713	989.5253032830522	413.6219616880389	-248.9726789655122	871.8355763467392	370.1622580227539	-183.2825905925729	860.6601598646043	248.7299056760039	-253.2010651917023	769.6366450386596	191.2003084864123	-224.7486716210076	814.330073287624	71.59057149662721	-249.5215252578592	769.9417349409682	76.80700854626667	-210.4648105341194	702.2811695951095	234.6280568912029	-269.4288745538265	
629	142.508	1091.019986537439	1399.049974575356	-271.9635655531098	1040.526146201376	1191.039356378694	-251.4016634526692	1220.795148652837	1326.128076627454	-303.2780967904436	1101.28581920481	1388.438288455842	-425.1273181156873	1179.837044624869	1386.048701269288	-141.4785033501081	1190.963530730993	970.5405766908436	-396.9388187940573	1214.713373764152	955.5628697929121	-177.2880468904676	1034.857995171376	1012.662609280104	-285.338569913705	1042.584717597538	1012.035208013351	-244.5099779956248	1129.989689577638	1003.640844776768	-439.5213308188829	1161.96258490261	993.7350278468109	-137.0398098706218	1126.416061198983	897.3625242988398	-463.1758559951297	1283.335139449757	803.4671379539517	-389.5776174547231	1230.535496456132	677.1502159777476	-441.055372845676	1286.098475883418	523.7050045172799	-414.289903974982	1345.570852519998	446.9590258061309	-368.5376906263255	1263.879898502224	335.1720299655671	-425.2419687059307	1331.367985587627	237.0229154388457	-361.0351770673138	1294.531315545815	131.8095845055564	-389.8971390140823	1419.781651447803	103.7581336833858	-379.565637255263	1384.732945727402	75.28034330713342	-414.4795753368052	1218.930146123334	102.661529606678	-343.7574128169236	1146.406307865629	885.4660424176664	-117.0499305602832	1188.797864636099	723.0308181233419	-209.0039173274967	1070.979955843751	655.3731404860713	-152.2958568067604	989.4411799258468	505.1532600098748	-187.6158741949142	987.1318651449086	415.7320933685215	-248.5309146544068	868.871951165738	373.6349240258074	-182.9363985680184	857.2422814856902	251.6051863547579	-252.1921315083177	765.7323281929781	194.7454242192735	-223.8256769241597	806.5481477287267	73.23292765933611	-249.2349861060214	761.9778306125698	79.80917549680157	-210.4954955153228	700.2410368773994	240.6368473241853	-268.5227669603699	
630	142.512	1090.976829736541	1400.136536684874	-272.0169478868117	1041.217800459578	1191.832145453252	-250.9020191726833	1220.694650167903	1327.715086871175	-303.7924151455284	1100.736867309457	1389.561518165676	-424.8915878570555	1180.369773536054	1387.397027556039	-141.897286463368	1191.36559041234	971.5100583404375	-396.7283113786399	1215.873293113324	956.3986818864755	-177.7687780113384	1035.680312748656	1014.27444217016	-284.9167206715989	1043.541637120402	1013.635234050923	-244.0900190164152	1130.614965119448	1005.035885172402	-439.2223921860946	1163.690869403027	994.9696223563589	-137.2837730719207	1126.768123797895	898.7082799541413	-463.1270972570691	1283.110643601048	802.1684792420161	-389.5525564688301	1228.871124399221	676.8072215572844	-441.453776155446	1284.024247477716	522.7031600426113	-414.1837615858012	1345.176649739624	447.5318416873259	-367.9987167310217	1267.338790433193	333.4087686060504	-424.7513010257564	1338.16450941298	237.5845937719791	-360.3484765759659	1305.318009140826	130.7870146288302	-388.9327096465696	1431.650831248392	107.417425281084	-377.7839756500947	1397.893464580583	77.31618399334832	-412.6486748623255	1230.558169200692	98.99416382975673	-343.0942495746648	1147.812104690762	886.6983836048632	-116.9606583930158	1188.976734017424	723.7000593072507	-209.2749434888717	1070.949181309734	656.7593096932484	-152.2101839744779	988.2627594320583	507.1613371803555	-187.4034551742104	985.1288351032553	417.5065851855344	-248.1272818537696	866.3168808493884	376.8551194861647	-182.5708487654852	853.9638461259434	254.3541012436881	-251.2520221121082	761.9413674146214	198.2922389326248	-222.8976369016569	798.9006433326607	75.08596661249037	-249.0462965351014	754.2237465199353	82.96249839131094	-210.5595667501229	698.300540207288	246.5718469498914	-267.5000181983098	
631	142.516	1090.949076929475	1401.051953467759	-272.0822045672082	1041.867946983788	1192.463309282856	-250.4794013685307	1220.611990143484	1329.108695671742	-304.2826105259161	1100.259964791185	1390.505253673093	-424.7010030206517	1180.856842872151	1388.564140206937	-142.2912842589326	1191.720345554419	972.2552468041767	-396.5479234995586	1216.94799693312	957.1155381318836	-178.224583759276	1036.415048905269	1015.691881008692	-284.5484308593423	1044.402421072961	1015.04396840911	-243.7216507509134	1131.194352368756	1006.174831005059	-438.9628428888334	1165.278849662109	996.0556413044527	-137.5294869667794	1127.083339712172	899.7661765928219	-463.07619187525	1282.699818264104	800.5281401705035	-389.4269065485041	1227.225096892677	676.2212869613627	-441.9714727581975	1282.006539338907	521.6149738324633	-414.0927809482079	1344.703864662236	448.0233165818739	-367.4589153365972	1270.466311407692	331.8591347648881	-424.1963459460972	1344.397573735712	238.2958593979747	-359.6440543989012	1315.335982984298	130.0747357022401	-387.915783920627	1442.57069291853	111.1220138633013	-375.9860701226549	1410.075076823283	79.46807151246428	-410.7439410032537	1241.433414396292	95.84442929807373	-342.3339618602367	1149.156663435737	887.7925820548189	-116.899337540333	1189.326111504723	724.2924190079682	-209.5786755172982	1071.226808446268	657.8777562486017	-152.165967431895	987.6103617592757	508.7741161524675	-187.2110995013317	983.5135412426185	418.9341684612621	-247.7714986217883	864.1787301776789	379.8058878975331	-182.1819304785358	850.8148114419478	256.9837217848798	-250.3948885296471	758.2592088799265	201.8448953718196	-221.9727369770432	791.4050048315669	77.16623962638317	-248.9680097250443	746.7049419415882	86.26621071801411	-210.6579701386624	696.4288930743523	252.4276637560427	-266.3553966109099	
